<svg width="40" height="40" viewBox="0 0 40 40" fill="none" xmlns="http://www.w3.org/2000/svg">
  <rect width="40" height="40" rx="8" fill="#3B82F6"/>
  <path d="M12 8L28 8C30.2091 8 32 9.79086 32 12V28C32 30.2091 30.2091 32 28 32H12C9.79086 32 8 30.2091 8 28V12C8 9.79086 9.79086 8 12 8Z" fill="#1E40AF"/>
  <path d="M16 14H24V16H16V14Z" fill="white"/>
  <path d="M16 18H24V20H16V18Z" fill="white"/>
  <path d="M16 22H20V24H16V22Z" fill="white"/>
  <circle cx="26" cy="26" r="3" fill="#F59E0B"/>
  <path d="M25 26L26 27L27 25" stroke="white" stroke-width="1.5" stroke-linecap="round" stroke-linejoin="round"/>
</svg>
